<svg version="1.1" xmlns="http://www.w3.org/2000/svg" xmlns:xlink="http://www.w3.org/1999/xlink" width="582.24885" height="429" viewBox="0,0,582.24885,429"><g transform="translate(66.04355,32.86149)"><g data-paper-data="{&quot;isPaintingLayer&quot;:true}" fill-rule="nonzero" stroke-linejoin="miter" stroke-miterlimit="10" stroke-dasharray="" stroke-dashoffset="0" style="mix-blend-mode: normal"><path d="M-23.7947,396.13851v-429h540v429z" fill="#000000" stroke="none" stroke-width="0" stroke-linecap="butt"/><path d="M-65.79355,336.63907v-3h2v3z" fill="#830000" stroke="#000000" stroke-width="0.5" stroke-linecap="butt"/><path d="M103.20645,308.63907l24,-53" fill="none" stroke="#000000" stroke-width="0.5" stroke-linecap="round"/><path d="M1.20645,332.63907l37,5l34,-9l20,5l15,13l8,-17l47,2l31,17l42,-22l19,6l21,15l31,-5l44,-4l19,-6l26,11l48,-10l36,6v35l-479,-3z" fill="#ff0000" stroke="#ff0000" stroke-width="9.5" stroke-linecap="round"/><path d="M1.20645,-0.36093l479,-3v35l-36,6l-48,-10l-26,11l-19,-6l-44,-4l-31,-5l-21,15l-19,6l-42,-22l-31,17l-47,2l-8,-17l-15,13l-20,5l-34,-9l-37,5z" data-paper-data="{&quot;index&quot;:null}" fill="#ff0000" stroke="#ff0000" stroke-width="9.5" stroke-linecap="round"/></g></g></svg>